<svg version="1.1" id="Layer_1" xmlns="http://www.w3.org/2000/svg" xmlns:xlink="http://www.w3.org/1999/xlink" x="0px" y="0px"
	 width="100%" viewBox="0 0 130 90" enable-background="new 0 0 130 90" xml:space="preserve">
<path fill="#FDEEEF" opacity="1.000000" stroke="none" 
	d="
M131.000000,37.000000 
	C131.000000,39.700630 131.000000,42.401260 130.654999,45.245483 
	C129.532928,47.770332 128.223694,50.121067 128.085022,52.538937 
	C127.755096,58.291927 127.978745,64.076660 127.978745,69.958160 
	C123.264381,70.614845 118.907768,71.779037 114.582748,71.671570 
	C110.014847,71.558075 107.549332,73.699181 104.887238,76.905907 
	C100.971664,81.622566 96.276360,85.576630 89.734543,86.654648 
	C86.704086,86.203590 83.934395,86.116913 81.168877,85.957932 
	C78.245926,85.789879 74.651299,86.557167 72.544930,85.139961 
	C67.963890,82.057816 63.582172,82.951141 58.627335,83.747879 
	C57.041851,82.340981 54.856804,81.179634 54.656986,79.742287 
	C53.959366,74.724190 50.644424,74.686119 47.038616,75.098541 
	C43.656384,75.485390 40.311687,76.200401 36.500362,76.852966 
	C32.392029,76.887337 28.733805,76.839752 25.005314,76.450516 
	C22.887083,74.161011 20.989872,70.781708 18.761484,70.547020 
	C13.181861,69.959396 11.360815,67.063057 11.395355,62.023277 
	C11.671824,60.240330 12.208047,58.247318 11.458223,57.081345 
	C10.008223,54.826607 7.833325,53.038040 6.018871,50.675117 
	C4.136939,47.227402 3.452786,44.410099 6.966064,41.773518 
	C7.831044,41.124378 7.916351,39.436314 8.661177,38.120197 
	C10.645508,36.008183 12.328750,34.001835 14.388563,31.933151 
	C17.119738,32.060371 20.512032,33.329559 21.641251,32.244209 
	C25.586676,28.452042 30.701054,24.805542 28.976749,17.973354 
	C29.000652,17.998348 28.944839,17.958076 29.231207,17.930023 
	C29.849480,17.612089 30.181385,17.322208 30.513290,17.032330 
	C30.061611,16.674610 29.609934,16.316891 29.120922,15.595041 
	C29.780962,13.505541 30.478333,11.780170 31.589636,10.041599 
	C34.912262,9.668992 37.812645,9.111333 40.731274,8.988935 
	C48.211552,8.675240 55.699940,8.555009 63.604187,8.498348 
	C66.957573,8.580129 69.891846,8.520985 73.251389,8.601270 
	C74.849785,8.646685 76.022926,8.552671 77.619057,8.548298 
	C80.388031,8.640833 82.734009,8.643730 85.273361,8.978295 
	C90.317642,10.204462 95.168541,11.098961 100.008957,11.997351 
	C99.998466,12.001242 100.006241,11.980210 100.064674,12.242255 
	C100.429924,12.659487 100.736732,12.814673 101.022537,12.985521 
	C101.001518,13.001182 101.027229,12.955662 101.118088,13.198724 
	C101.508919,13.591712 101.808907,13.741637 102.419380,14.045044 
	C104.466316,15.192822 106.202766,16.187120 107.963898,17.503963 
	C108.031914,18.255493 108.075249,18.684479 108.142509,19.400078 
	C108.752090,20.148077 109.337746,20.609463 109.959717,21.035069 
	C109.996033,20.999289 109.929855,21.075565 109.964943,21.427696 
	C112.690025,25.109882 115.380020,28.439938 118.070015,31.769993 
	C118.464592,31.471228 118.859169,31.172462 119.253738,30.873697 
	C118.534431,29.578970 117.815117,28.284243 117.459000,26.913151 
	C121.163383,29.237938 124.504555,31.639090 127.915741,34.415394 
	C128.990494,35.527031 129.995255,36.263512 131.000000,37.000000 
M119.367088,31.602440 
	C119.540581,32.045883 119.714073,32.489323 119.887566,32.932766 
	C119.972939,32.551476 120.058304,32.170181 119.367088,31.602440 
z"/>
<path fill="#000000" opacity="1.000000" stroke="none" 
	d="
M25.075579,76.792175 
	C28.733805,76.839752 32.392029,76.887337 36.960243,76.942657 
	C41.176155,76.944885 44.491756,76.794792 47.782574,77.015030 
	C48.882168,77.088623 50.910919,78.323334 50.837151,78.664536 
	C49.345619,85.563118 55.350727,85.191780 58.918098,87.156807 
	C58.946823,87.137367 58.905537,87.081612 59.073639,87.417572 
	C60.494492,88.835693 61.747246,89.917847 63.000000,91.000000 
	C42.419819,91.000000 21.839636,91.000000 1.000000,91.000000 
	C1.000000,76.980171 1.000000,62.958744 1.321842,48.556950 
	C3.082088,49.136471 4.520492,50.096355 5.958895,51.056244 
	C7.833325,53.038040 10.008223,54.826607 11.458223,57.081345 
	C12.208047,58.247318 11.671824,60.240330 11.024137,62.023918 
	C8.075911,63.340202 7.585256,64.746796 8.751663,67.253624 
	C11.254760,72.633247 18.757936,77.229324 25.075579,76.792175 
z"/>
<path fill="#000000" opacity="1.000000" stroke="none" 
	d="
M31.175701,10.054800 
	C30.478333,11.780170 29.780962,13.505541 29.016792,15.917057 
	C28.948275,17.054827 28.946558,17.506453 28.944839,17.958076 
	C28.944839,17.958076 29.000652,17.998348 28.642710,18.108574 
	C27.568186,19.610243 27.212320,21.580519 26.071615,22.291378 
	C21.509703,25.134247 16.703985,27.585890 11.617510,30.113945 
	C8.455520,33.019527 5.664486,35.993439 2.520744,39.095871 
	C1.778690,39.149597 1.389345,39.074799 1.000000,39.000000 
	C1.000000,26.398890 1.000000,13.797780 1.000000,1.000000 
	C16.353668,1.000000 31.708176,1.000000 47.836189,1.259576 
	C48.416595,2.009835 48.223499,2.500518 47.635048,3.032130 
	C43.718174,4.086445 40.098408,4.853703 36.711960,6.205469 
	C34.678383,7.017209 33.008850,8.740940 31.175701,10.054800 
z"/>
<path fill="#000000" opacity="1.000000" stroke="none" 
	d="
M107.939209,17.181419 
	C106.202766,16.187120 104.466316,15.192822 102.337555,13.792909 
	C101.639236,13.243416 101.333237,13.099538 101.027229,12.955662 
	C101.027229,12.955662 101.001518,13.001182 100.964493,12.721542 
	C100.620384,12.288007 100.313316,12.134109 100.006241,11.980211 
	C100.006241,11.980210 99.998466,12.001242 99.899796,11.640684 
	C98.277634,10.565453 96.816490,9.623297 95.217262,9.185018 
	C92.194656,8.356656 89.092690,7.817924 85.610184,7.073707 
	C82.451759,6.717206 79.706841,6.445833 76.688568,6.062757 
	C75.959007,5.593352 75.502808,5.235649 74.838387,4.536339 
	C72.750725,4.122447 70.871300,4.050162 68.862366,3.633940 
	C68.488579,2.526667 68.244293,1.763333 68.000000,0.999999 
	C88.906761,1.000000 109.813530,1.000000 131.000000,1.000000 
	C131.000000,12.686075 131.000000,24.374378 131.000000,36.531342 
	C129.995255,36.263512 128.990494,35.527031 127.975967,34.058331 
	C123.312553,28.365759 118.822929,23.232208 113.893082,18.563490 
	C112.616814,17.354824 109.961220,17.602631 107.939209,17.181419 
z"/>
<path fill="#000000" opacity="1.000000" stroke="none" 
	d="
M89.997147,86.987228 
	C96.276360,85.576630 100.971664,81.622566 104.887238,76.905907 
	C107.549332,73.699181 110.014847,71.558075 114.582748,71.671570 
	C118.907768,71.779037 123.264381,70.614845 127.978745,69.958160 
	C127.978745,64.076660 127.755096,58.291927 128.085022,52.538937 
	C128.223694,50.121067 129.532928,47.770332 130.654999,45.694538 
	C131.000000,60.927517 131.000000,75.855034 131.000000,91.000000 
	C115.979805,91.000000 100.958557,91.000000 85.156906,90.704674 
	C84.613762,89.612190 84.851036,88.815025 85.479591,88.012245 
	C87.246292,87.666824 88.621719,87.327026 89.997147,86.987228 
z"/>
<path fill="#F8EAEA" opacity="1.000000" stroke="none" 
	d="
M85.088318,88.017868 
	C84.851036,88.815025 84.613762,89.612190 84.688248,90.704674 
	C77.979050,91.000000 70.958107,91.000000 63.468582,91.000000 
	C61.747246,89.917847 60.494492,88.835693 59.530418,87.382553 
	C62.945602,87.197456 66.069984,87.440536 69.199081,87.556450 
	C74.493927,87.752579 79.791740,87.868332 85.088318,88.017868 
z"/>
<path fill="#ACA4A6" opacity="1.000000" stroke="none" 
	d="
M1.000000,39.449982 
	C1.389345,39.074799 1.778690,39.149597 2.870073,39.111092 
	C5.168103,38.740479 6.764096,38.483170 8.360088,38.225864 
	C7.916351,39.436314 7.831044,41.124378 6.966064,41.773518 
	C3.452786,44.410099 4.136939,47.227402 6.018872,50.675117 
	C4.520492,50.096355 3.082088,49.136471 1.321842,48.088291 
	C1.000000,45.299988 1.000000,42.599972 1.000000,39.449982 
z"/>
<path fill="#CDE9FA" opacity="1.000000" stroke="none" 
	d="
M67.531601,0.999999 
	C68.244293,1.763333 68.488579,2.526667 68.586899,3.839904 
	C67.013702,4.827658 65.586479,5.265509 64.034592,5.344413 
	C62.372566,4.338156 60.869122,3.253469 59.291019,3.131032 
	C55.556347,2.841276 51.786209,3.008646 48.030407,2.991201 
	C48.223499,2.500518 48.416595,2.009835 48.304848,1.259576 
	C54.354397,1.000000 60.708797,1.000000 67.531601,0.999999 
z"/>
<path fill="#AAACC9" opacity="1.000000" stroke="none" 
	d="
M47.635048,3.032130 
	C51.786209,3.008646 55.556347,2.841276 59.291019,3.131032 
	C60.869122,3.253469 62.372566,4.338156 63.802238,5.554686 
	C63.524719,6.868411 63.354900,7.612917 63.185081,8.357424 
	C55.699940,8.555009 48.211552,8.675240 40.731274,8.988935 
	C37.812645,9.111333 34.912262,9.668992 31.589638,10.041599 
	C33.008850,8.740940 34.678383,7.017209 36.711960,6.205469 
	C40.098408,4.853703 43.718174,4.086445 47.635048,3.032130 
z"/>
<path fill="#BDB5B6" opacity="1.000000" stroke="none" 
	d="
M85.479584,88.012245 
	C79.791740,87.868332 74.493927,87.752579 69.199081,87.556450 
	C66.069984,87.440536 62.945602,87.197456 59.362320,87.046585 
	C58.905537,87.081612 58.946823,87.137367 58.953327,86.745392 
	C58.952568,85.524559 58.945309,84.695717 58.938046,83.866867 
	C63.582172,82.951141 67.963890,82.057816 72.544930,85.139961 
	C74.651299,86.557167 78.245926,85.789879 81.168877,85.957932 
	C83.934395,86.116913 86.704086,86.203590 89.734543,86.654648 
	C88.621719,87.327026 87.246292,87.666824 85.479584,88.012245 
z"/>
<path fill="#B5ADAE" opacity="1.000000" stroke="none" 
	d="
M25.005314,76.450516 
	C18.757936,77.229324 11.254760,72.633247 8.751663,67.253624 
	C7.585256,64.746796 8.075911,63.340202 10.702849,62.187508 
	C11.360815,67.063057 13.181861,69.959396 18.761484,70.547020 
	C20.989872,70.781708 22.887083,74.161011 25.005314,76.450516 
z"/>
<path fill="#A1A4C4" opacity="1.000000" stroke="none" 
	d="
M11.988464,30.182268 
	C16.703985,27.585890 21.509703,25.134247 26.071615,22.291378 
	C27.212320,21.580519 27.568186,19.610243 28.618807,18.083580 
	C30.701054,24.805542 25.586676,28.452042 21.641251,32.244209 
	C20.512032,33.329559 17.119738,32.060371 14.082380,31.894932 
	C12.929238,31.340122 12.458851,30.761196 11.988464,30.182268 
z"/>
<path fill="#A4A5C5" opacity="1.000000" stroke="none" 
	d="
M107.963898,17.503963 
	C109.961220,17.602631 112.616814,17.354824 113.893082,18.563490 
	C118.822929,23.232208 123.312553,28.365759 127.905968,33.683178 
	C124.504555,31.639090 121.163383,29.237938 117.301109,26.612343 
	C114.496628,24.617123 112.213242,22.846342 109.929855,21.075565 
	C109.929855,21.075565 109.996033,20.999289 110.283646,20.786858 
	C109.753708,20.087440 108.936142,19.600452 108.118584,19.113464 
	C108.075249,18.684479 108.031914,18.255493 107.963898,17.503963 
z"/>
<path fill="#CFC5C6" opacity="1.000000" stroke="none" 
	d="
M58.627335,83.747879 
	C58.945309,84.695717 58.952568,85.524559 58.924599,86.764832 
	C55.350727,85.191780 49.345619,85.563118 50.837151,78.664536 
	C50.910919,78.323334 48.882168,77.088623 47.782574,77.015030 
	C44.491756,76.794792 41.176155,76.944885 37.410351,76.860703 
	C40.311687,76.200401 43.656384,75.485390 47.038616,75.098541 
	C50.644424,74.686119 53.959366,74.724190 54.656986,79.742287 
	C54.856804,81.179634 57.041851,82.340981 58.627335,83.747879 
z"/>
<path fill="#CCC2C6" opacity="1.000000" stroke="none" 
	d="
M11.617508,30.113945 
	C12.458851,30.761196 12.929238,31.340122 13.705809,31.957268 
	C12.328750,34.001835 10.645508,36.008183 8.661177,38.120197 
	C6.764096,38.483170 5.168103,38.740479 3.222782,38.982567 
	C5.664486,35.993439 8.455520,33.019527 11.617508,30.113945 
z"/>
<path fill="#8488B2" opacity="1.000000" stroke="none" 
	d="
M63.604187,8.498348 
	C63.354900,7.612917 63.524719,6.868411 63.926895,5.913632 
	C65.586479,5.265509 67.013702,4.827658 68.716400,4.183843 
	C70.871300,4.050162 72.750725,4.122447 74.709625,4.818864 
	C74.134781,6.449279 73.480453,7.455561 72.826126,8.461843 
	C69.891846,8.520985 66.957573,8.580129 63.604187,8.498348 
z"/>
<path fill="#AAACC9" opacity="1.000000" stroke="none" 
	d="
M86.023697,7.158834 
	C89.092690,7.817924 92.194656,8.356656 95.217262,9.185018 
	C96.816490,9.623297 98.277634,10.565453 99.910278,11.636793 
	C95.168541,11.098961 90.317642,10.204462 85.353523,8.775661 
	C85.501442,7.880518 85.762566,7.519676 86.023697,7.158834 
z"/>
<path fill="#000000" opacity="1.000000" stroke="none" 
	d="
M109.964943,21.427696 
	C112.213242,22.846342 114.496628,24.617123 116.937912,26.688709 
	C117.815117,28.284243 118.534431,29.578970 119.253738,30.873697 
	C118.859169,31.172462 118.464592,31.471228 118.070015,31.769993 
	C115.380020,28.439938 112.690025,25.109882 109.964943,21.427696 
z"/>
<path fill="#8488B2" opacity="1.000000" stroke="none" 
	d="
M85.610184,7.073707 
	C85.762566,7.519676 85.501442,7.880518 85.160156,8.443995 
	C82.734009,8.643730 80.388031,8.640833 77.562988,8.270804 
	C77.043266,7.327268 77.002594,6.750864 76.961929,6.174459 
	C79.706841,6.445833 82.451759,6.717206 85.610184,7.073707 
z"/>
<path fill="#AAACC9" opacity="1.000000" stroke="none" 
	d="
M76.688560,6.062757 
	C77.002594,6.750864 77.043266,7.327268 77.139999,8.181166 
	C76.022926,8.552671 74.849785,8.646685 73.251389,8.601271 
	C73.480453,7.455561 74.134781,6.449279 74.917862,5.160471 
	C75.502808,5.235649 75.959007,5.593352 76.688560,6.062757 
z"/>
<path fill="#A1A4C4" opacity="1.000000" stroke="none" 
	d="
M29.231207,17.930023 
	C28.946558,17.506453 28.948275,17.054827 29.054123,16.281187 
	C29.609934,16.316891 30.061611,16.674610 30.513290,17.032330 
	C30.181385,17.322208 29.849480,17.612089 29.231207,17.930023 
z"/>
<path fill="#000000" opacity="1.000000" stroke="none" 
	d="
M108.142509,19.400078 
	C108.936142,19.600452 109.753708,20.087440 110.247330,20.822639 
	C109.337746,20.609463 108.752090,20.148077 108.142509,19.400078 
z"/>
<path fill="#000000" opacity="1.000000" stroke="none" 
	d="
M119.755379,31.695665 
	C120.058304,32.170181 119.972939,32.551476 119.887566,32.932766 
	C119.714073,32.489323 119.540581,32.045883 119.755379,31.695665 
z"/>
<path fill="#AAACC9" opacity="1.000000" stroke="none" 
	d="
M101.118088,13.198723 
	C101.333237,13.099538 101.639236,13.243416 102.027069,13.639428 
	C101.808907,13.741637 101.508919,13.591712 101.118088,13.198723 
z"/>
<path fill="#AAACC9" opacity="1.000000" stroke="none" 
	d="
M100.064674,12.242256 
	C100.313316,12.134109 100.620384,12.288007 100.985504,12.705882 
	C100.736732,12.814673 100.429924,12.659487 100.064674,12.242256 
z"/>
</svg>